# xmcd
#
# Track frame offsets:
#	150
#	18510
#	35997
#	52276
#	68942
#
# Disc length: 1206 seconds
#
# Revision: 0
# Processed by: cddbd v1.5.2PL0 Copyright (c) Steve Scherf et al.
# Submitted via: audiograbber 1.83.01
#
DISCID=4b04b405
DTITLE=Loathe - Darkest night of the soul
DYEAR=2007
DGENRE=Metal
TTITLE0=The Dark diaries 
TTITLE1=It will get worse
TTITLE2=Ragdoll
TTITLE3=Children of a lesser god
TTITLE4=This overwhelming grasp of solitude
EXTD=
EXTT0=
EXTT1=
EXTT2=
EXTT3=
EXTT4=
PLAYORDER=
